<?xml version="1.0" encoding="UTF-8"?><svg id="a" xmlns="http://www.w3.org/2000/svg" width="282.31" height="232.56" viewBox="0 0 282.31 232.56"><defs><style>.b{fill:#eb4d27;}.c{fill:#fff;}</style></defs><path class="b" d="M34.91,30.31V192.48H190.32s54.62,3.38,55.18-42.79-39.98-46.17-45.05-49.55-52.93-8.45-51.8-27.03,34.35-18.58,41.1-16.33,22.52,1.69,23.09,22.52h28.15s7.97-47.86-56.87-47.86c-7.88,0-149.21-1.13-149.21-1.13Z"/><path class="c" d="M64.37,59.23v38.1h62.29s-11.19-14.51-4.23-37.8l-58.05-.3Z"/><path class="c" d="M145.14,111.95v10.29H64.34v41.76h55.99s-4.54-12.11-4.24-24.82h29.35s-5.75,28.14,37.53,26.93,32.38-23.61,31.47-26.93-13.01-13.01-44.18-19.07c0,0-23.61-6.96-25.12-8.17Z"/></svg>