<?xml version="1.0" encoding="UTF-8"?><svg id="a" xmlns="http://www.w3.org/2000/svg" width="24.62" height="24.96" viewBox="0 0 24.62 24.96"><defs><style>.b{fill:none;stroke:#eb4d27;stroke-miterlimit:10;stroke-width:.5px;}</style></defs><path class="b" d="M3.27,1.78l4.77,6.14,1.68-1.31s.74-.41,.04-1.37S6.62,1.1,6.62,1.1c0,0-.71-.95-1.31-.73S3.27,1.78,3.27,1.78Z"/><path class="b" d="M15.29,17.39l4.77,6.14,1.68-1.31s.74-.41,.04-1.37-3.14-4.13-3.14-4.13c0,0-.71-.95-1.31-.73s-2.04,1.41-2.04,1.41Z"/><path class="b" d="M2.63,2.37l4.74,6.13s-.86,1.31,2.39,5.32,3.97,4.38,4.96,4.01l4.65,6.18s-2.71,1.94-7.67-2.03S5.03,15,3.31,11.66,.79,4.65,2.63,2.37Z"/></svg>