<?xml version="1.0" encoding="UTF-8"?><svg id="a" xmlns="http://www.w3.org/2000/svg" width="24.62" height="17.96" viewBox="0 0 24.62 17.96"><defs><style>.b{fill:none;stroke:#eb4d27;stroke-miterlimit:10;stroke-width:.5px;}</style></defs><path class="b" d="M.59,17.14H23.8s.34-4.37-1.59-5.16-2.36-.69-2.46-1.28,.17-.57,.4-.69,1.68-1.13,1.59-2.81-.9-2.8-2.19-3.38-2.93,.38-3.29,.65"/><path class="b" d="M19.02,16.98c0-.16-.07-3.75-.51-4.44s-.81-1.28-3.66-2.18c0,0-.71-.07-.9-.74s-.16-.52,.64-.98,1.62-2.07,1.62-2.9,0-1.83-.26-2.35-1.21-2.32-3.31-2.47-3.15,1.21-3.45,1.67-1.14,1.43-.61,3.62,2.17,2.64,2.25,2.76,.29,.07,.02,.73-.9,.65-1.26,.77-2.4,.66-3.1,1.85-.85,3.89-.81,4.68"/><path class="b" d="M15.39,7.92s.28,1.05,.7,1.47,1.17,.63,1.17,.89-.18,.83-.18,.83"/><path class="b" d="M7.68,11.11s-.5-.7-.25-.88,1.67-.81,1.88-2.35"/><path class="b" d="M.87,17.04s-.07-1.41-.02-1.81,.14-2.12,.75-2.65,3.03-1,3.23-1.39,.65-.83,0-1.09-1.86-1.07-1.73-3.11,1.13-2.72,1.88-3.07,2.02-.44,3.37,.63"/></svg>