<?xml version="1.0" encoding="UTF-8"?><svg id="a" xmlns="http://www.w3.org/2000/svg" width="53.11" height="52.87" viewBox="0 0 53.11 52.87"><defs><style>.b{fill:#eb4d27;}.c{fill:none;stroke:#eb4d27;stroke-miterlimit:10;stroke-width:2px;}</style></defs><circle class="c" cx="26.14" cy="26.24" r="24.43"/><g><path class="b" d="M16.1,23.07h1.04v3.9h.04c.22-.31,.43-.6,.64-.86l2.47-3.03h1.3l-2.93,3.43,3.15,4.65h-1.23l-2.66-3.97-.77,.89v3.08h-1.04v-8.08Z"/><path class="b" d="M22.6,23.07h1.04v7.21h3.45v.88h-4.5v-8.08Z"/><path class="b" d="M29.31,23.07v8.08h-1.04v-8.08h1.04Z"/><path class="b" d="M31.14,23.07h1.04v3.9h.04c.22-.31,.43-.6,.64-.86l2.47-3.03h1.3l-2.93,3.43,3.15,4.65h-1.24l-2.66-3.97-.77,.89v3.08h-1.04v-8.08Z"/></g></svg>